HIERARCHY
ROOT root
{
	OFFSET 0.000000 0.000000 0.000000
	CHANNELS 6 Xposition Yposition Zposition Zrotation Yrotation Xrotation
	JOINT lhip
	{
		OFFSET 0.058581 -0.082280 -0.017664
		CHANNELS 3 Zrotation Yrotation Xrotation
		JOINT lknee
		{
			OFFSET 0.043451 -0.386469 0.008037
			CHANNELS 3 Zrotation Yrotation Xrotation
			JOINT lankle
			{
				OFFSET -0.014790 -0.426874 -0.037428
				CHANNELS 3 Zrotation Yrotation Xrotation
				JOINT ltoe
				{
					OFFSET 0.041054 -0.060286 0.122042
					CHANNELS 3 Zrotation Yrotation Xrotation
					End Site
					{
						OFFSET 0.000000 0.000000 0.000000
					}
				}
			}
		}
	}
	JOINT rhip
	{
		OFFSET -0.060310 -0.090513 -0.013543
		CHANNELS 3 Zrotation Yrotation Xrotation
		JOINT rknee
		{
			OFFSET -0.043257 -0.383688 -0.004843
			CHANNELS 3 Zrotation Yrotation Xrotation
			JOINT rankle
			{
				OFFSET 0.019056 -0.420046 -0.034562
				CHANNELS 3 Zrotation Yrotation Xrotation
				JOINT rtoe
				{
					OFFSET -0.034840 -0.062106 0.130323
					CHANNELS 3 Zrotation Yrotation Xrotation
					End Site
					{
						OFFSET 0.000000 0.000000 0.000000
					}
				}
			}
		}
	}
	JOINT lowerback
	{
		OFFSET 0.004439 0.124404 -0.038385
		CHANNELS 3 Zrotation Yrotation Xrotation
		JOINT upperback
		{
			OFFSET 0.004488 0.137956 0.026820
			CHANNELS 3 Zrotation Yrotation Xrotation
			JOINT chest
			{
				OFFSET -0.002265 0.056032 0.002855
				CHANNELS 3 Zrotation Yrotation Xrotation
				JOINT lowerneck
				{
					OFFSET -0.013390 0.211636 -0.033468
					CHANNELS 3 Zrotation Yrotation Xrotation
					JOINT upperneck
					{
						OFFSET 0.010113 0.088937 0.050410
						CHANNELS 3 Zrotation Yrotation Xrotation
						End Site
						{
							OFFSET 0.000000 0.000000 0.000000
						}
					}
				}
				JOINT lclavicle
				{
					OFFSET 0.071702 0.114000 -0.018898
					CHANNELS 3 Zrotation Yrotation Xrotation
					JOINT lshoulder
					{
						OFFSET 0.122921 0.045205 -0.019046
						CHANNELS 3 Zrotation Yrotation Xrotation
						JOINT lelbow
						{
							OFFSET 0.255332 -0.015649 -0.022946
							CHANNELS 3 Zrotation Yrotation Xrotation
							JOINT lwrist
							{
								OFFSET 0.265709 0.012698 -0.007375
								CHANNELS 3 Zrotation Yrotation Xrotation
								End Site
								{
									OFFSET 0.000000 0.000000 0.000000
								}
							}
						}
					}
				}
				JOINT rclavicle
				{
					OFFSET -0.082954 0.112472 -0.023707
					CHANNELS 3 Zrotation Yrotation Xrotation
					JOINT rshoulder
					{
						OFFSET -0.113228 0.046853 -0.008472
						CHANNELS 3 Zrotation Yrotation Xrotation
						JOINT relbow
						{
							OFFSET -0.260127 -0.014369 -0.031269
							CHANNELS 3 Zrotation Yrotation Xrotation
							JOINT rwrist
							{
								OFFSET -0.269108 0.006794 -0.006027
								CHANNELS 3 Zrotation Yrotation Xrotation
								End Site
								{
									OFFSET 0.000000 0.000000 0.000000
								}
							}
						}
					}
				}
			}
		}
	}
}
MOTION
Frames: 10
Frame Time: 0.033333
0.479136 0.352623 1.025836 -95.706861 2.124049 110.475947 1.371914 -6.036098 -9.118742 -6.809945 1.237235 29.484564 3.803947 12.132611 12.325612 0.000000 -0.000000 0.000000 -0.676496 2.986524 -15.892089 1.037507 -3.494649 35.430204 1.336840 -5.213014 13.029254 0.000000 -0.000000 0.000000 -2.805529 1.760759 1.032614 2.334383 -3.382770 14.855401 -1.636515 0.959932 -9.675779 -3.095337 -6.658378 18.134836 2.294959 1.278157 3.953642 -13.410214 -10.619845 4.694175 -63.416710 -20.203962 18.283621 94.093217 -75.972437 -46.964379 22.000978 -1.958949 27.208587 7.881317 8.013135 -0.853846 64.387158 19.296693 15.345015 -169.775035 80.875548 -129.604839 -23.293300 8.725727 -1.699327 
0.403941 0.349678 1.098826 -95.049716 1.319969 110.676283 0.745169 -8.441985 -10.722663 -6.593619 3.027603 33.484475 3.497578 11.895941 20.603771 0.000000 -0.000000 0.000000 -1.388446 2.910680 -13.601057 -0.481087 -4.346340 31.997351 -2.682899 -4.200068 33.429205 0.000000 -0.000000 0.000000 -2.863600 1.747109 -5.032816 3.236846 -3.707138 13.990148 -3.161394 1.390481 -9.438830 -4.263030 -7.347154 22.998046 0.432557 2.131941 11.099079 -12.497594 -6.885741 5.265864 -65.879246 -22.074165 21.956916 104.167850 -83.351194 -57.268378 17.920008 0.982556 18.738704 6.891382 1.837146 -0.409584 65.257114 18.515270 14.137998 171.637569 76.590552 -153.043591 -19.047141 4.140902 -2.028675 
0.339158 0.346902 1.160367 -94.388635 0.888596 108.471946 0.726207 -9.827257 -14.350967 -6.530034 7.843807 45.086559 5.114128 12.773291 19.620465 0.000000 -0.000000 0.000000 -1.485786 5.639323 -14.553888 -1.633590 -6.243104 40.117964 1.251081 -5.336660 35.728722 0.000000 -0.000000 0.000000 -2.684914 1.583213 -4.829915 3.293418 -3.221462 12.859140 -3.199567 1.706298 -7.957392 -4.549133 -6.184539 25.199785 0.821183 0.684444 8.491388 -12.403383 -6.670102 4.360081 -66.785999 -20.484188 22.225512 123.522124 -85.456640 -75.785006 17.656210 -5.747704 15.649685 6.389659 1.439306 -1.560309 62.756686 12.050814 11.069641 168.115165 73.000273 -160.472626 -16.698650 5.392189 -3.728243 
0.279469 0.348260 1.210865 -94.335128 0.715811 104.362048 0.947782 -8.387606 -16.178964 -5.162636 11.953198 54.060806 5.449892 13.118930 18.404147 0.000000 -0.000000 0.000000 -1.062470 5.830204 -15.076575 -2.234722 -6.544999 47.622639 2.011079 -5.146985 35.243250 0.000000 -0.000000 0.000000 -2.726400 1.724172 -0.895893 3.107063 -2.737945 13.544595 -2.915470 1.851884 -6.892298 -4.207230 -5.481962 26.392911 1.070445 -0.613759 4.731901 -12.572046 -6.750914 3.998585 -65.617492 -18.614007 21.201848 117.715612 -86.880374 -70.295780 18.250626 -7.628769 13.561080 7.293700 1.971255 -0.979182 58.027215 7.660207 9.417102 164.341567 74.660101 -163.648193 -18.521570 9.257155 -1.750191 
0.221939 0.351855 1.251993 -94.752221 0.214441 101.774047 1.406393 -6.437655 -19.116366 -4.920339 13.696492 58.266635 5.261881 13.098501 17.372706 0.000000 -0.000000 0.000000 -1.571548 3.807289 -16.732354 -2.839402 -7.030747 49.726657 0.889590 -6.035716 34.036612 0.000000 -0.000000 0.000000 -3.602740 2.208474 1.937630 2.910225 -2.696483 14.330772 -2.800738 1.741296 -6.292459 -3.913607 -5.365974 27.378120 1.002826 -0.647916 4.430124 -13.049535 -4.976300 4.293228 -62.533118 -16.625096 20.437078 50.411348 -88.564290 -5.146543 18.240241 -6.855496 12.737598 8.391559 0.836072 -0.418742 54.913779 5.455777 9.863708 147.866873 79.630934 178.874179 -18.154312 8.409048 -1.780391 
0.165836 0.354518 1.285119 -95.245161 -0.044906 100.794158 2.028858 -5.091121 -22.841156 -5.954735 13.048996 57.172518 4.540104 13.210146 16.741608 0.000000 -0.000000 0.000000 -1.894078 3.264889 -20.076175 -2.596988 -7.664689 48.825561 0.076616 -6.837335 26.756440 0.000000 -0.000000 0.000000 -4.521852 2.546758 3.716997 2.727018 -2.638213 14.945908 -2.516543 1.488630 -6.733050 -4.551068 -5.072754 28.450763 1.554045 0.230473 4.845669 -14.105485 -2.652208 4.786694 -58.810941 -13.803824 20.187695 -1.697466 -85.817901 44.394651 17.871517 -7.032120 12.495116 9.634274 -0.225940 -0.347581 52.047630 3.303436 11.681770 97.465204 82.694042 127.837654 -18.337179 8.559483 -1.739257 
0.108547 0.355971 1.308381 -95.724259 0.108835 99.238005 2.542656 -4.452815 -24.248358 -7.069618 10.442922 51.248699 4.163357 13.312198 15.975753 0.000000 -0.000000 0.000000 -1.298100 3.032967 -22.435832 -2.597967 -7.836198 45.704439 -2.246817 -7.981554 24.009569 0.000000 -0.000000 0.000000 -4.698741 2.583059 6.689622 2.342712 -2.226074 15.153803 -2.282255 1.355793 -6.871848 -4.712761 -4.409910 28.501894 1.653437 0.562885 4.726378 -14.796262 -1.195274 5.063952 -55.794354 -10.299725 19.964517 -2.818454 -82.045106 44.251069 17.072498 -6.927046 12.060857 10.556610 -0.623287 0.310331 49.716817 1.162727 12.958417 52.284750 79.447720 82.967392 -17.663122 8.686665 -1.487061 
0.050774 0.357781 1.319538 -96.322671 0.379509 97.528376 3.135793 -4.336823 -24.203696 -7.903757 6.474069 42.718285 3.690433 13.557865 15.578455 0.000000 -0.000000 0.000000 -0.612267 2.667612 -24.353606 -2.706598 -8.156990 41.534657 -3.427761 -9.249052 23.038433 0.000000 -0.000000 0.000000 -4.500220 2.616865 9.859887 1.830156 -1.560333 15.154505 -2.094052 1.410911 -6.379898 -4.800040 -3.679556 28.133603 1.822097 0.491529 3.616379 -14.930140 0.065681 5.071563 -53.817069 -6.504762 19.859087 -2.189363 -78.481420 43.309671 16.579428 -6.459850 11.890004 10.899074 -1.124969 1.308008 48.169551 -1.586475 13.525310 37.900391 75.129600 69.702318 -17.069509 8.633814 -0.895644 
-0.007236 0.359695 1.318512 -96.530387 0.763435 96.584615 3.886509 -4.465861 -24.251353 -7.763482 1.741011 33.430380 2.888477 13.425103 16.877088 0.000000 -0.000000 0.000000 -0.096191 2.258049 -26.519531 -2.023681 -8.747551 36.211995 -3.773248 -9.777184 24.641654 0.000000 -0.000000 0.000000 -4.076413 2.493389 11.835483 1.693418 -0.956163 15.261424 -2.034860 1.361394 -5.912329 -4.889888 -2.950598 27.675963 1.731432 0.249700 2.616168 -15.111597 2.545888 5.118253 -52.106615 -2.662069 19.589709 -6.752439 -76.755586 46.977792 16.193945 -6.314022 11.964325 10.861222 -2.936564 1.650678 47.155016 -5.270567 13.820824 36.630941 72.145613 68.399921 -16.688388 8.618246 -1.298036 
-0.066681 0.361393 1.305129 -96.395476 1.163176 96.220876 4.548881 -4.355799 -24.366027 -6.342323 -2.430864 24.011941 1.838000 12.688194 19.469243 0.000000 -0.000000 0.000000 0.293477 1.858561 -28.254819 -0.464791 -8.908950 29.320365 -4.174509 -9.294984 28.442712 0.000000 -0.000000 0.000000 -3.620696 2.165906 12.550795 1.900073 -0.551200 15.422580 -2.121166 1.101069 -5.380384 -4.576291 -2.140819 27.210900 1.271723 -0.125495 2.051107 -14.924697 6.701985 5.199970 -50.400210 1.213382 19.287729 -17.265311 -77.083903 56.404752 15.989049 -6.606580 11.426552 10.602441 -6.363845 1.689966 46.294001 -8.753459 14.085110 40.407904 70.682249 70.989726 -16.078695 8.555283 -3.272190 
